<svg width="14" height="11" viewBox="0 0 14 11" fill="none" xmlns="http://www.w3.org/2000/svg">
<path d="M0.777344 5.25C0.777344 4.75781 1.16016 4.375 1.625 4.375L10.0195 4.375L7.14844 1.47656C6.79297 1.14844 6.79297 0.574219 7.14844 0.246094C7.3125 0.0820313 7.53125 1.91237e-08 7.75 0C7.99609 -2.15142e-08 8.21484 0.0820312 8.37891 0.246094L12.7539 4.62109C13.1094 4.94922 13.1094 5.52344 12.7539 5.85156L8.37891 10.2266C8.05078 10.582 7.47656 10.582 7.14844 10.2266C6.79297 9.89844 6.79297 9.32422 7.14844 8.99609L10.0195 6.125L1.625 6.125C1.16016 6.125 0.777344 5.71484 0.777344 5.25Z" fill="white"/>
</svg>
