<svg width="22" height="18" viewBox="0 0 22 18" fill="none" xmlns="http://www.w3.org/2000/svg">
<path d="M10.6875 0.5625C4.78711 0.5625 0 5.34961 0 11.25C0 13.2168 0.519531 15.0723 1.44727 16.6309C1.63281 17.002 2.04102 17.2246 2.44922 17.2246H18.8887C19.2969 17.2246 19.7051 17.002 19.9277 16.6309C20.8184 15.0723 21.375 13.2168 21.375 11.25C21.375 5.34961 16.5879 0.5625 10.6875 0.5625ZM3.5625 13.625C2.89453 13.625 2.375 13.1055 2.375 12.4375C2.375 11.8066 2.89453 11.25 3.5625 11.25C4.19336 11.25 4.75 11.8066 4.75 12.4375C4.75 13.1055 4.19336 13.625 3.5625 13.625ZM5.34375 7.6875C4.67578 7.6875 4.15625 7.16797 4.15625 6.5C4.15625 5.86914 4.67578 5.3125 5.34375 5.3125C5.97461 5.3125 6.53125 5.86914 6.53125 6.5C6.53125 7.16797 5.97461 7.6875 5.34375 7.6875ZM12.7285 14.8125H8.60938C8.42383 14.4785 8.3125 14.0703 8.3125 13.625C8.3125 12.6602 8.90625 11.8066 9.79688 11.4355V4.125C9.79688 3.64258 10.168 3.23438 10.6875 3.23438C11.1699 3.23438 11.5781 3.64258 11.5781 4.125V11.4355C12.4316 11.8066 13.0625 12.6602 13.0625 13.6621C13.0625 14.0703 12.9141 14.4785 12.7285 14.8125ZM14.8438 6.5C14.8438 5.86914 15.3633 5.3125 16.0312 5.3125C16.6621 5.3125 17.2188 5.86914 17.2188 6.5C17.2188 7.16797 16.6621 7.6875 16.0312 7.6875C15.3633 7.6875 14.8438 7.16797 14.8438 6.5ZM17.8125 13.625C17.1445 13.625 16.625 13.1055 16.625 12.4375C16.625 11.8066 17.1445 11.25 17.8125 11.25C18.4434 11.25 19 11.8066 19 12.4375C19 13.1055 18.4434 13.625 17.8125 13.625Z" fill="#009EDF"/>
</svg>
